<?xml version="1.0" ?><!DOCTYPE svg  PUBLIC '-//W3C//DTD SVG 1.1//EN'  'http://www.w3.org/Graphics/SVG/1.1/DTD/svg11.dtd'><svg enable-background="new 0 0 24 24" height="24px" id="Layer_1" version="1.1" viewBox="0 0 24 24" width="24px" xml:space="preserve" xmlns="http://www.w3.org/2000/svg" xmlns:xlink="http://www.w3.org/1999/xlink"><g><path d="M23,16h-6V8.7c1.7-0.6,2.9-2.3,2.9-4.2c0-2.5-2-4.5-4.5-4.5s-4.5,2-4.5,4.5c0,2,1.3,3.7,3.1,4.3V16H9v-2H5v2H1   c-0.6,0-1,0.4-1,1v6c0,0.6,0.4,1,1,1h22c0.6,0,1-0.4,1-1v-6C24,16.4,23.6,16,23,16z M12,4.5C12,2.6,13.6,1,15.5,1S19,2.6,19,4.5   S17.4,8,15.5,8S12,6.4,12,4.5z M15,9c0.1,0,0.3,0,0.4,0c0.2,0,0.4,0,0.6-0.1V16h-1V9z M6,15h2v1H6V15z M22,22H2v-4h20V22z"/><path d="M17,4.5c0,0.2,0,0.3-0.1,0.5h1C18,4.8,18,4.7,18,4.5C18,3.1,16.9,2,15.5,2c-0.2,0-0.3,0-0.5,0.1v1C15.2,3,15.3,3,15.5,3   C16.3,3,17,3.7,17,4.5z"/></g></svg>